<?xml version="1.0" standalone="no"?>
<!DOCTYPE svg PUBLIC "-//W3C//DTD SVG 20010904//EN"
 "http://www.w3.org/TR/2001/REC-SVG-20010904/DTD/svg10.dtd">
<svg version="1.0" xmlns="http://www.w3.org/2000/svg"
 width="700.000000pt" height="700.000000pt" viewBox="0 0 700.000000 700.000000"
 preserveAspectRatio="xMidYMid meet">
<metadata>
Created by potrace 1.14, written by Peter Selinger 2001-2017
</metadata>
<g transform="translate(0.000000,700.000000) scale(0.100000,-0.100000)"
fill="#000000" stroke="none">
<path d="M4337 6824 c-1 -1 -43 -5 -94 -8 -50 -4 -103 -9 -117 -12 -14 -2 -38
-6 -53 -9 -14 -2 -47 -7 -72 -11 -25 -3 -62 -10 -81 -14 -19 -5 -47 -11 -61
-14 -15 -2 -79 -18 -144 -36 -618 -165 -1273 -527 -1830 -1014 -211 -185 -444
-418 -596 -597 -24 -29 -49 -57 -54 -63 -6 -6 -38 -45 -71 -86 -470 -581 -818
-1284 -934 -1885 -44 -228 -53 -319 -54 -525 -2 -280 24 -454 99 -670 72 -207
203 -420 339 -553 97 -93 158 -99 232 -23 67 69 111 151 276 516 107 237 226
479 313 640 99 183 97 180 116 210 9 14 40 66 69 115 98 166 416 637 450 665
3 3 39 48 80 100 40 52 76 97 79 100 3 3 24 28 45 55 22 28 50 61 62 75 13 14
33 37 46 52 116 133 190 211 367 388 244 243 286 283 451 420 69 58 127 107
130 110 3 3 34 28 70 55 36 28 67 52 70 55 11 11 230 171 320 232 394 271 782
484 1440 790 545 253 608 338 396 535 -238 222 -541 350 -946 399 -49 6 -337
13 -343 8z"/>
<path d="M5950 5754 c-276 -57 -606 -219 -1038 -510 -100 -68 -188 -128 -195
-134 -7 -5 -73 -56 -147 -112 -130 -98 -298 -230 -350 -274 -14 -12 -90 -77
-170 -145 -161 -137 -163 -138 -345 -304 -224 -205 -599 -572 -795 -781 -702
-746 -1218 -1428 -1482 -1956 -138 -277 -197 -474 -194 -648 3 -163 38 -227
201 -359 402 -328 974 -430 1650 -296 720 143 1497 565 2155 1170 73 67 302
296 370 371 52 56 179 206 245 288 17 21 37 46 45 56 8 10 22 28 30 40 8 12
39 54 68 93 187 252 400 618 524 901 36 84 117 288 122 311 1 6 15 47 29 93
38 118 84 293 101 387 14 73 18 98 31 197 13 90 19 207 18 343 0 128 -5 190
-28 355 -15 107 -78 306 -136 427 -85 180 -248 392 -345 449 -91 53 -222 67
-364 38z"/>
</g>
</svg>
