<?xml version="1.0" standalone="no"?>
<!DOCTYPE svg PUBLIC "-//W3C//DTD SVG 20010904//EN"
 "http://www.w3.org/TR/2001/REC-SVG-20010904/DTD/svg10.dtd">
<svg version="1.0" xmlns="http://www.w3.org/2000/svg"
 width="1200.000000pt" height="1200.000000pt" viewBox="0 0 1200.000000 1200.000000"
 preserveAspectRatio="xMidYMid meet">
<metadata>
Created by potrace 1.14, written by Peter Selinger 2001-2017
</metadata>
<g transform="translate(0.000000,1200.000000) scale(0.100000,-0.100000)"
fill="#000000" stroke="none">
<path d="M7587 11704 c-1 -1 -65 -5 -142 -9 -77 -3 -153 -8 -170 -9 -16 -2
-59 -7 -95 -10 -73 -7 -117 -12 -175 -21 -22 -4 -53 -9 -70 -11 -16 -2 -41 -6
-55 -9 -14 -3 -41 -7 -60 -10 -117 -20 -356 -76 -545 -129 -5 -1 -30 -8 -55
-15 -206 -56 -635 -216 -885 -331 -319 -147 -677 -338 -925 -495 -579 -366
-1097 -771 -1558 -1220 -124 -120 -331 -329 -382 -385 -18 -19 -53 -57 -79
-85 -279 -297 -684 -817 -923 -1185 -407 -629 -689 -1204 -895 -1830 -47 -144
-133 -447 -147 -520 -3 -14 -17 -81 -31 -150 -14 -69 -32 -170 -41 -225 -8
-55 -16 -110 -19 -123 -2 -13 -7 -53 -10 -90 -4 -37 -8 -78 -11 -92 -23 -134
-22 -689 1 -832 2 -13 11 -74 20 -136 85 -598 341 -1134 720 -1508 246 -243
391 -160 649 371 33 66 70 145 83 175 14 30 36 79 49 108 57 124 74 160 99
217 36 78 141 304 199 427 218 464 532 1039 780 1428 168 262 379 571 534 780
89 119 252 331 262 340 3 3 30 36 60 75 68 87 321 389 339 405 3 3 42 46 86
95 77 88 98 110 261 285 186 199 553 557 759 741 27 24 59 53 70 64 12 11 45
40 75 65 29 25 58 50 64 55 6 6 40 35 76 65 36 30 67 57 70 61 13 14 411 327
531 417 350 262 923 637 1262 825 26 15 68 39 95 53 26 15 52 30 57 34 6 4 51
29 100 55 50 27 135 73 190 103 104 56 648 326 770 382 143 66 223 103 325
152 136 66 224 105 230 104 3 -1 19 9 37 22 17 12 34 22 37 22 24 0 300 149
406 219 266 175 296 322 106 514 -252 256 -578 459 -941 587 -71 25 -200 65
-244 76 -9 2 -36 8 -61 15 -25 6 -56 13 -70 15 -14 3 -56 11 -95 19 -38 8 -92
16 -120 19 -27 4 -68 9 -90 12 -91 12 -117 14 -260 20 -82 3 -172 7 -198 8
-26 1 -49 1 -50 0z"/>
<path d="M10259 9875 c-370 -60 -808 -246 -1364 -580 -94 -56 -212 -130 -263
-163 -52 -34 -97 -62 -102 -62 -5 0 -10 -3 -12 -7 -1 -5 -37 -30 -78 -58 -240
-161 -666 -475 -915 -674 -66 -53 -127 -101 -135 -108 -38 -30 -376 -308 -380
-313 -3 -3 -34 -30 -70 -60 -36 -30 -67 -57 -70 -60 -3 -3 -39 -34 -80 -70
-41 -36 -77 -67 -80 -70 -3 -3 -43 -39 -90 -80 -47 -41 -90 -79 -96 -85 -6 -5
-46 -41 -89 -80 -88 -78 -96 -86 -255 -233 -237 -221 -335 -316 -690 -672
-321 -320 -528 -535 -720 -745 -30 -33 -62 -67 -70 -75 -17 -17 -244 -270
-332 -370 -31 -36 -66 -76 -78 -90 -410 -468 -890 -1076 -1183 -1500 -164
-237 -477 -727 -477 -747 0 -3 -6 -14 -14 -22 -7 -9 -33 -52 -56 -96 -227
-422 -357 -741 -417 -1025 -21 -101 -27 -153 -27 -270 -1 -191 9 -241 72 -364
42 -83 163 -206 310 -317 53 -41 99 -76 102 -79 3 -3 14 -10 25 -17 11 -6 56
-34 100 -61 276 -170 609 -295 945 -356 125 -23 140 -25 195 -32 28 -3 61 -8
75 -10 145 -23 724 -23 848 0 9 2 44 7 77 10 93 11 312 44 395 61 41 8 84 17
95 19 129 26 410 102 570 154 44 14 85 27 90 29 79 21 501 187 634 249 51 24
95 44 97 44 5 0 331 163 389 195 123 67 178 97 210 115 50 28 308 184 320 193
6 4 87 58 180 119 94 62 175 116 180 121 9 7 49 36 144 105 32 22 236 177 253
191 7 6 68 56 135 111 158 129 160 130 193 160 15 14 56 50 91 80 219 189 555
521 799 790 41 46 80 88 85 94 41 44 240 284 324 391 56 72 109 138 117 148 7
9 48 63 89 120 41 56 79 107 83 112 4 6 51 73 103 150 232 343 409 643 583
992 350 699 584 1453 651 2091 3 28 7 73 10 100 21 198 21 599 0 762 -3 19 -7
55 -10 80 -4 40 -13 98 -20 140 -1 8 -6 35 -10 60 -11 65 -12 71 -23 115 -6
22 -13 52 -16 66 -14 82 -99 341 -147 446 -89 198 -158 321 -262 467 -128 180
-270 335 -363 393 -37 24 -107 53 -163 69 -79 22 -304 27 -412 9z"/>
</g>
</svg>
